<svg viewBox="0 0 256 230" xmlns="http://www.w3.org/2000/svg" fill-rule="evenodd" clip-rule="evenodd" stroke-linejoin="round" stroke-miterlimit="1.414">
  <path d="M201.025 79.674a151.171 151.171 0 0 0-7.274-2.292c.411-1.678.788-3.333 1.124-4.961 5.506-26.728 1.906-48.259-10.388-55.348-11.787-6.798-31.065.29-50.535 17.233a151.325 151.325 0 0 0-5.626 5.163 139.552 139.552 0 0 0-3.744-3.458c-20.405-18.118-40.858-25.752-53.139-18.643-11.776 6.817-15.264 27.059-10.307 52.389a150.746 150.746 0 0 0 1.67 7.485 149.875 149.875 0 0 0-8.363 2.63c-23.922 8.34-39.2 21.412-39.2 34.97 0 14.004 16.401 28.049 41.318 36.566a128.29 128.29 0 0 0 6.109 1.911 147.908 147.908 0 0 0-1.774 8.066c-4.726 24.89-1.035 44.653 10.71 51.428 12.131 6.995 32.491-.195 52.317-17.525a128.817 128.817 0 0 0 4.715-4.346 148.086 148.086 0 0 0 6.108 5.573c19.204 16.525 38.17 23.198 49.905 16.405 12.119-7.016 16.058-28.247 10.944-54.078-.39-1.973-.845-3.988-1.355-6.039 1.43-.423 2.833-.859 4.202-1.313 25.904-8.582 42.757-22.457 42.757-36.648 0-13.607-15.77-26.767-40.174-35.168z" fill="#53c1de" fill-rule="nonzero"/>
  <path d="M195.406 142.328c-1.235.409-2.503.804-3.795 1.187-2.86-9.053-6.719-18.68-11.442-28.625 4.507-9.71 8.217-19.213 10.997-28.208a142.12 142.12 0 0 1 6.717 2.119c20.909 7.198 33.664 17.841 33.664 26.041 0 8.735-13.775 20.075-36.141 27.486zm-9.28 18.389c2.261 11.422 2.584 21.749 1.086 29.822-1.346 7.254-4.052 12.09-7.398 14.027-7.121 4.122-22.349-1.236-38.772-15.368a138.364 138.364 0 0 1-5.682-5.181c6.367-6.963 12.73-15.058 18.941-24.049 10.923-.969 21.243-2.554 30.602-4.717.461 1.859.87 3.683 1.223 5.466zm-93.849 43.137c-6.958 2.457-12.499 2.527-15.848.596-7.128-4.111-10.091-19.979-6.049-41.265a138.687 138.687 0 0 1 1.649-7.502c9.256 2.047 19.501 3.52 30.45 4.408 6.252 8.797 12.799 16.883 19.397 23.964a118.425 118.425 0 0 1-4.305 3.964c-8.767 7.664-17.552 13.1-25.294 15.835zm-32.594-61.58c-11.018-3.766-20.117-8.66-26.354-14.001-5.604-4.799-8.434-9.564-8.434-13.431 0-8.227 12.267-18.722 32.726-25.855a139.637 139.637 0 0 1 7.777-2.447c2.828 9.197 6.537 18.813 11.013 28.537-4.534 9.869-8.296 19.638-11.151 28.943a118.454 118.454 0 0 1-5.577-1.746zm10.926-74.371c-4.247-21.702-1.427-38.073 5.67-42.181 7.559-4.376 24.275 1.864 41.893 17.507 1.126 1 2.257 2.047 3.391 3.129-6.565 7.05-13.052 15.075-19.249 23.821-10.627.985-20.799 2.567-30.152 4.686a141.241 141.241 0 0 1-1.553-6.962zm97.467 24.068a307.473 307.473 0 0 0-6.871-11.301c7.209.912 14.117 2.122 20.603 3.602-1.947 6.241-4.374 12.767-7.232 19.457a334.951 334.951 0 0 0-6.5-11.758zm-39.747-38.714c4.452 4.823 8.911 10.209 13.297 16.052a283.944 283.944 0 0 0-26.706-.006c4.39-5.789 8.887-11.167 13.409-16.046zm-40.002 38.78a284.966 284.966 0 0 0-6.378 11.685c-2.811-6.667-5.216-13.222-7.18-19.552 6.447-1.443 13.322-2.622 20.485-3.517a284.306 284.306 0 0 0-6.927 11.384zm7.133 57.683c-7.401-.826-14.379-1.945-20.824-3.348 1.995-6.442 4.453-13.138 7.324-19.948a283.054 283.054 0 0 0 6.406 11.692 285.448 285.448 0 0 0 7.094 11.604zm33.136 27.389c-4.575-4.937-9.138-10.397-13.595-16.27 4.326.17 8.737.256 13.22.256 4.606 0 9.159-.103 13.64-.303-4.4 5.979-8.843 11.448-13.265 16.317zm46.072-51.032c3.021 6.884 5.566 13.544 7.588 19.877-6.552 1.495-13.625 2.699-21.078 3.593a337.251 337.251 0 0 0 6.937-11.498 306.948 306.948 0 0 0 6.553-11.972zm-14.915 7.15a316.49 316.49 0 0 1-10.839 17.489c-6.705.48-13.633.727-20.693.727-7.031 0-13.871-.219-20.458-.646a274.411 274.411 0 0 1-11.044-17.517h.001a270.937 270.937 0 0 1-9.641-18.206 273.757 273.757 0 0 1 9.611-18.216v.002a270.94 270.94 0 0 1 10.956-17.442c6.72-.508 13.611-.774 20.575-.774 6.996 0 13.895.268 20.613.78a290.492 290.492 0 0 1 10.887 17.383 316.115 316.115 0 0 1 9.741 18.13 290.098 290.098 0 0 1-9.709 18.29zm19.913-107.792c7.566 4.364 10.509 21.961 5.755 45.038a126.849 126.849 0 0 1-1.016 4.492c-9.374-2.163-19.554-3.773-30.212-4.773-6.209-8.841-12.642-16.879-19.101-23.838a143.32 143.32 0 0 1 5.197-4.766c16.682-14.518 32.273-20.249 39.377-16.153z" fill="#fff" fill-rule="nonzero"/>
  <path d="M127.999 138.737c-51.747-28.229-14.322-63.323 0-39.688 14.324-23.635 51.751 11.46 0 39.688z" fill="#53c1de" fill-rule="nonzero"/>
</svg>
